# xmcd
#
# Track frame offsets: 
#        150
#        19416
#        35569
#        50681
#        70980
#        88705
#        108410
#        127378
#        145558
#        163316
#        181266
#        196082
#        214094
#        230476
#        248728
#        267606
#        285612
#        304701
#        324031
#        341393
#
# Disc length: 4756 seconds
#
# Revision: 0
# Processed by: cddbd v1.5.2PL0 Copyright (c) Steve Scherf et al.
# Submitted via: ExactAudioCopyFreeDBPlugin 1.0
#
DISCID=2b129214
DTITLE=100 Tubes Salsa - Salsa de New-York
DYEAR=2010
DGENRE=Salsa
TTITLE0=Ray Barretto - Indestructible
TTITLE1=E. Palmieri and I. Quintana - Contigo
TTITLE2=C. Pozo and D. Gillespie - Manteca
TTITLE3=Kevin Ceballo - Por Eso Te Quiero
TTITLE4=J. Pagan y su Orchestra - Ritmo Sabroso
TTITLE5=Hector Lavoe - Mi Gente
TTITLE6=Jose Cheo Feliciano - Salsaludando
TTITLE7=Manny Oquendo Y Libre - Bailala Pronto
TTITLE8=J. Pagan y su Orchestra - Salsa De La Mata
TTITLE9=Aris Martinez - Ni Tiguere Galio Ni Piraguaya
TTITLE10=E. Palmieri and I. Quintana - Puerto Rico
TTITLE11=Ray Barretto - Ritmo En Ele Corazon
TTITLE12=Kevin Ceballlo - Pero No Puedo
TTITLE13=J. Pagan y su Orchestra - Te Amo Tanto
TTITLE14=Luisito Rosario - El Guiso
TTITLE15=Eddie Palmieri - Oye Lo Que Te Convienne
TTITLE16=Antony G. - Dejame Beber
TTITLE17=Pedro Jesus - Es Tan Grande
TTITLE18=Ray Barretto - Ay No
TTITLE19=Cesta All Stars - El Quinto De Beethoven
EXTD=
EXTT0=
EXTT1=
EXTT2=
EXTT3=
EXTT4=
EXTT5=
EXTT6=
EXTT7=
EXTT8=
EXTT9=
EXTT10=
EXTT11=
EXTT12=
EXTT13=
EXTT14=
EXTT15=
EXTT16=
EXTT17=
EXTT18=
EXTT19=
PLAYORDER=
